name Walk6.mot
datacolumns 19
datarows 17
range 3.48500000 3.50100000
endheader

                time	   L_ground_force_vx	   L_ground_force_vy	   L_ground_force_vz	   L_ground_force_px	   L_ground_force_py	   L_ground_force_pz	   R_ground_force_vx	   R_ground_force_vy	   R_ground_force_vz	   R_ground_force_px	   R_ground_force_py	   R_ground_force_pz	   L_ground_torque_x	   L_ground_torque_y	   L_ground_torque_z	   R_ground_torque_x	   R_ground_torque_y	   R_ground_torque_z	
          3.48500000	         -0.00000000	         -0.00000000	         -0.00000000	          0.00000000	          0.00000000	         -0.00000000	          5.84743248	         39.75851016	          1.61959824	          0.45869057	          0.00000000	          0.07969440	          0.00000000	         -0.00000000	          0.00000000	          0.00000000	         -1.15552700	          0.00000000	
          3.48600000	         -0.00000000	         -0.00000000	         -0.00000000	          0.00000000	          0.00000000	         -0.00000000	          5.34407860	         36.90127980	          1.43221166	          0.44692550	          0.00000000	          0.07761146	          0.00000000	         -0.00000000	          0.00000000	          0.00000000	         -1.06645921	          0.00000000	
          3.48700000	         -0.00000000	         -0.00000000	         -0.00000000	          0.00000000	          0.00000000	         -0.00000000	          4.86346988	         34.15951594	          1.25474251	          0.43480121	          0.00000000	          0.07546932	          0.00000000	         -0.00000000	          0.00000000	          0.00000000	         -0.98113486	          0.00000000	
          3.48800000	         -0.00000000	         -0.00000000	         -0.00000000	          0.00000000	          0.00000000	         -0.00000000	          4.40542326	         31.53128082	          1.08711929	          0.42233719	          0.00000000	          0.07327142	          0.00000000	         -0.00000000	          0.00000000	          0.00000000	         -0.89951548	          0.00000000	
          3.48900000	         -0.00000000	         -0.00000000	         -0.00000000	          0.00000000	          0.00000000	          0.00000000	          3.96970598	         29.01466069	          0.92923679	          0.40955619	          0.00000000	          0.07102168	          0.00000000	         -0.00000000	          0.00000000	          0.00000000	         -0.82155718	          0.00000000	
          3.49000000	         -0.00000000	         -0.00000000	         -0.00000000	          0.00000000	          0.00000000	          0.00000000	          3.55603731	         26.60777398	          0.78095633	          0.39648456	          0.00000000	          0.06872456	          0.00000000	         -0.00000000	          0.00000000	          0.00000000	         -0.74721126	          0.00000000	
          3.49100000	         -0.00000000	         -0.00000000	         -0.00000000	          0.00000000	          0.00000000	          0.00000000	          3.16409054	         24.30877978	          0.64210617	          0.38315244	          0.00000000	          0.06638514	          0.00000000	         -0.00000000	          0.00000000	          0.00000000	         -0.67642479	          0.00000000	
          3.49200000	         -0.00000000	         -0.00000000	         -0.00000000	          0.00000000	          0.00000000	          0.00000000	          2.79349487	         22.11588474	          0.51248226	          0.36959398	          0.00000000	          0.06400916	          0.00000000	         -0.00000000	          0.00000000	          0.00000000	         -0.60914111	          0.00000000	
          3.49300000	         -0.00000000	         -0.00000000	         -0.00000000	          0.00000000	          0.00000000	          0.00000000	          2.44383717	         20.02734539	          0.39184949	          0.35584758	          0.00000000	          0.06160311	          0.00000000	         -0.00000000	          0.00000000	          0.00000000	         -0.54530018	          0.00000000	
          3.49400000	         -0.00000000	         -0.00000000	         -0.00000000	          0.00000000	          0.00000000	          0.00000000	          2.11466362	         18.04146223	          0.27994360	          0.34195609	          0.00000000	          0.05917424	          0.00000000	         -0.00000000	          0.00000000	          0.00000000	         -0.48483890	          0.00000000	
          3.49500000	         -0.00000000	         -0.00000000	         -0.00000000	          0.00000000	          0.00000000	          0.00000000	          1.80548180	         16.15656191	          0.17647418	          0.32796701	          0.00000000	          0.05673063	          0.00000000	         -0.00000000	          0.00000000	          0.00000000	         -0.42769115	          0.00000000	
          3.49600000	         -0.00000000	         -0.00000000	         -0.00000000	          0.00000000	          0.00000000	          0.00000000	          1.51576380	         14.37095789	          0.08112954	          0.31393203	          0.00000000	          0.05428112	          0.00000000	         -0.00000000	          0.00000000	          0.00000000	         -0.37378758	          0.00000000	
          3.49700000	         -0.00000000	         -0.00000000	         -0.00000000	          0.00000000	          0.00000000	          0.00000000	          1.24495086	         12.68288069	         -0.00641586	          0.29990465	          0.00000000	          0.05183486	          0.00000000	         -0.00000000	          0.00000000	          0.00000000	         -0.32305484	          0.00000000	
          3.49800000	         -0.00000000	         -0.00000000	         -0.00000000	          0.00000000	          0.00000000	          0.00000000	          0.99245919	         11.09040519	         -0.08649354	          0.28593668	          0.00000000	          0.04940072	          0.00000000	         -0.00000000	          0.00000000	          0.00000000	         -0.27541486	          0.00000000	
          3.49900000	         -0.00000000	         -0.00000000	         -0.00000000	          0.00000000	          0.00000000	          0.00000000	          0.75768514	          9.59142053	         -0.15943585	          0.27207583	          0.00000000	          0.04698686	          0.00000000	         -0.00000000	          0.00000000	          0.00000000	         -0.23078471	          0.00000000	
          3.50000000	         -0.00000000	         -0.00000000	         -0.00000000	          0.00000000	          0.00000000	          0.00000000	          0.54000944	          8.18364203	         -0.22557382	          0.25836537	          0.00000000	          0.04460069	          0.00000000	         -0.00000000	          0.00000000	          0.00000000	         -0.18907711	          0.00000000	
          3.50100000	         -0.00000000	         -0.00000000	         -0.00000000	          0.00000000	          0.00000000	          0.00000000	          0.33880086	          6.86463465	         -0.28523608	          0.24484434	          0.00000000	          0.04224887	          0.00000000	         -0.00000000	          0.00000000	          0.00000000	         -0.15020119	          0.00000000	
